# xmcd
# Copyright (C) 1995-1998 Ti Kan
#
# Track frame offsets:
#       150
#       17348
#       35469
#       51148
#       67211
#       94897
#
# Disc length: 1482 seconds
#
# Revision: 0
# Processed by: cddbd v1.5.2PL0 Copyright (c) Steve Scherf et al.
# Submitted via: CD-Import v1.0
#
DISCID=4905c806
DTITLE=The Kills - The Kills (Single)
DYEAR=05
DGENRE=
TTITLE0=You Love Is A Deserter
TTITLE1=No Now
TTITLE2=Dead Road 7
TTITLE3=The Good Ones (Mix 2)
TTITLE4=I Hate The Way You Love Part 1 and 2
TTITLE5=Hit Me When U-1-2
EXTD=
EXTT0=
EXTT1=
EXTT2=
EXTT3=
EXTT4=
EXTT5=
PLAYORDER=
